<svg width="85" height="83" viewBox="0 0 85 83" version="1.1" xmlns="http://www.w3.org/2000/svg" xmlns:xlink="http://www.w3.org/1999/xlink">
<g id="Canvas" fill="none">
<g id="icon-checked">
<g id="Page 1">
<g id="Mobile Portrait">
<g id="Group 2">
<path id="Rectangle 10" d="M 65.274 0L 19 0C 8.50659 0 0 8.50659 0 19L 0 63.9825C 0 74.4759 8.50659 82.9825 19 82.9825L 65.274 82.9825C 75.7674 82.9825 84.274 74.4759 84.274 63.9825L 84.274 19C 84.274 8.50659 75.7674 0 65.274 0Z" fill="url(#paint0_linear)"/>
<g id="ic add circle black 24px">
<g id="Group">
<path id="Star" d="M 32.5 3.0104L 38.7383 10.0285L 39.5168 10.9044L 40.6615 10.6534L 49.8335 8.64242L 50.7553 17.987L 50.8703 19.1532L 51.9439 19.6229L 60.5463 23.3872L 55.7994 31.4889L 55.207 32.5L 55.7994 33.5111L 60.5463 41.6128L 51.9439 45.3771L 50.8703 45.8468L 50.7553 47.013L 49.8335 56.3576L 40.6615 54.3466L 39.5168 54.0956L 38.7383 54.9715L 32.5 61.9896L 26.2617 54.9715L 25.4832 54.0956L 24.3385 54.3466L 15.1664 56.3576L 14.2447 47.013L 14.1297 45.8468L 13.0561 45.3771L 4.45373 41.6128L 9.20062 33.5111L 9.79301 32.5L 9.20062 31.4889L 4.45372 23.3872L 13.0561 19.6229L 14.1297 19.1532L 14.2447 17.987L 15.1664 8.64241L 24.3385 10.6534L 25.4832 10.9044L 26.2617 10.0285L 32.5 3.0104Z" transform="translate(9 9)" stroke-width="4" stroke="white"/>
<path id="%" d="M 6.615 23.485C 5.54167 23.485 4.59667 23.1933 3.78 22.61C 2.98667 22.0267 2.36833 21.2333 1.925 20.23C 1.48167 19.2033 1.26 18.0833 1.26 16.87C 1.26 15.6333 1.48167 14.5133 1.925 13.51C 2.36833 12.4833 2.98667 11.6783 3.78 11.095C 4.59667 10.4883 5.54167 10.185 6.615 10.185C 8.225 10.185 9.50833 10.8267 10.465 12.11C 11.445 13.37 11.935 14.945 11.935 16.835C 11.935 18.0483 11.7017 19.1683 11.235 20.195C 10.7917 21.1983 10.1617 22.0033 9.345 22.61C 8.55167 23.1933 7.64167 23.485 6.615 23.485ZM 6.685 35.07C 6.335 35.07 5.99667 34.9417 5.67 34.685C 5.36667 34.4283 5.215 34.1017 5.215 33.705C 5.215 33.4483 5.29667 33.1567 5.46 32.83L 19.845 11.095C 20.1717 10.6517 20.5567 10.43 21 10.43C 21.35 10.43 21.6767 10.5583 21.98 10.815C 22.3067 11.0717 22.47 11.3983 22.47 11.795C 22.47 12.075 22.3767 12.3667 22.19 12.67L 7.84 34.405C 7.51333 34.8483 7.12833 35.07 6.685 35.07ZM 6.615 20.895C 7.40833 20.895 8.015 20.5217 8.435 19.775C 8.87833 19.0283 9.1 18.06 9.1 16.87C 9.1 15.6567 8.87833 14.6767 8.435 13.93C 8.015 13.1833 7.40833 12.81 6.615 12.81C 5.82167 12.81 5.20333 13.1833 4.76 13.93C 4.34 14.6767 4.13 15.645 4.13 16.835C 4.13 18.0483 4.34 19.0283 4.76 19.775C 5.20333 20.5217 5.82167 20.895 6.615 20.895ZM 21.385 35.315C 20.3583 35.315 19.4367 35.0233 18.62 34.44C 17.8033 33.8567 17.1617 33.0633 16.695 32.06C 16.2517 31.0567 16.03 29.9483 16.03 28.735C 16.03 27.4983 16.2517 26.3783 16.695 25.375C 17.1383 24.3483 17.7567 23.5433 18.55 22.96C 19.3667 22.3533 20.3117 22.05 21.385 22.05C 22.4583 22.05 23.3917 22.3533 24.185 22.96C 25.0017 23.5433 25.62 24.3367 26.04 25.34C 26.4833 26.3433 26.705 27.4633 26.705 28.7C 26.705 29.9133 26.4717 31.0217 26.005 32.025C 25.5617 33.0283 24.9317 33.8333 24.115 34.44C 23.3217 35.0233 22.4117 35.315 21.385 35.315ZM 21.385 32.76C 22.1783 32.76 22.785 32.3867 23.205 31.64C 23.625 30.8933 23.835 29.925 23.835 28.735C 23.835 27.5217 23.6133 26.5417 23.17 25.795C 22.75 25.025 22.155 24.64 21.385 24.64C 20.5917 24.64 19.9733 25.025 19.53 25.795C 19.11 26.5417 18.9 27.51 18.9 28.7C 18.9 29.9133 19.11 30.8933 19.53 31.64C 19.9733 32.3867 20.5917 32.76 21.385 32.76Z" transform="translate(29 19)" fill="white"/>
</g>
</g>
</g>
</g>
</g>
</g>
</g>
<defs>
<linearGradient id="paint0_linear" x2="1" gradientUnits="userSpaceOnUse" gradientTransform="matrix(0 82.9825 -84.274 0 84.274 0)">
<stop stop-color="#F91CA6"/>
<stop offset="1" stop-color="#B126F8"/>
</linearGradient>
</defs>
</svg>
